<svg xmlns="http://www.w3.org/2000/svg" viewBox="0 0 64 64" fill="none">
  <path d="M20 44c-2-2-2-5 0-7l4-4c1-1 3-1 4 0s1 3 0 4l-4 4c-1 1-1 3 0 4s3 1 4 0l7-7" stroke="#fbbf24" stroke-width="2.5" stroke-linecap="round" stroke-linejoin="round"/>
  <path d="M14 22l6-6 4 4-6 6z" stroke="#fbbf24" stroke-width="2.5" stroke-linejoin="round"/>
  <path d="M10 14l4-4 6 6-4 4z" stroke="#fbbf24" stroke-width="2.5" stroke-linejoin="round"/>
  <circle cx="46" cy="18" r="4" stroke="#fbbf24" stroke-width="2.5"/>
  <path d="M44 24l-3 3M50 26l3 3M40 18h-6M52 18h6" stroke="#fbbf24" stroke-width="2.5" stroke-linecap="round"/>
</svg>
