<svg xmlns="http://www.w3.org/2000/svg" viewBox="0 0 64 64" fill="none">
  <circle cx="32" cy="46" r="5" stroke="#38bdf8" stroke-width="2.5"/>
  <path d="M32 41V28" stroke="#38bdf8" stroke-width="2.5" stroke-linecap="round"/>
  <path d="M32 28a14 14 0 0 1 14 14" stroke="#38bdf8" stroke-width="2.5" stroke-linecap="round"/>
  <path d="M32 28a14 14 0 0 0-14 14" stroke="#38bdf8" stroke-width="2.5" stroke-linecap="round"/>
  <path d="M32 28a22 22 0 0 1 22 22" stroke="#38bdf8" stroke-width="2.5" stroke-linecap="round"/>
  <path d="M32 28a22 22 0 0 0-22 22" stroke="#38bdf8" stroke-width="2.5" stroke-linecap="round"/>
  <path d="M32 12a30 30 0 0 1 30 30" stroke="#38bdf8" stroke-width="2.5" stroke-linecap="round"/>
  <path d="M32 12a30 30 0 0 0-30 30" stroke="#38bdf8" stroke-width="2.5" stroke-linecap="round"/>
</svg>
